<?xml version="1.0" encoding="UTF-8" standalone="no"?>
<svg width="136px" height="26px" viewBox="0 0 136 26" version="1.1" xmlns="http://www.w3.org/2000/svg" xmlns:xlink="http://www.w3.org/1999/xlink" xmlns:sketch="http://www.bohemiancoding.com/sketch/ns">
    <title>logo</title>
    <description>Created with Sketch (http://www.bohemiancoding.com/sketch)</description>
    <defs></defs>
    <g id="Page-1" stroke="none" stroke-width="1" fill="none" fill-rule="evenodd" sketch:type="MSPage">
        <path d="M63.3008781,6.99522637 C63.3008781,6.99522637 60.2317926,6.64624937 58.9458362,6.64624937 C56.7659251,6.64624937 55.5899203,7.34898389 55.5899203,9.08908842 C55.5899203,11.1160234 56.6559734,11.4458784 59.3713014,12.0434417 C62.4403868,12.7366152 63.7932703,13.4871548 63.7932703,16.2455073 C63.7932703,19.5823012 61.9001895,20.9112821 58.811982,20.9112821 C57.1196826,20.9112821 54.0792801,20.447573 54.0792801,20.447573 L54.2561589,18.8939082 C54.2561589,18.8939082 57.2105122,19.2667877 58.7880795,19.2667877 C60.9727712,19.2667877 62.0627268,18.4445405 62.0627268,16.3124344 C62.0627268,14.5818909 61.1496499,14.0942792 58.6398838,13.601887 C55.4608467,12.903933 53.8784989,12.1581739 53.8784989,9.13211298 C53.8784989,6.23990627 55.8146042,4.99697447 58.9458362,4.99697447 C60.6572577,4.99697447 63.4538543,5.44156161 63.4538543,5.44156161 L63.3008781,6.99522637 L63.3008781,6.99522637 Z" id="Shape" fill="#FFFFFF" sketch:type="MSShapeGroup"></path>
        <path d="M66.6615745,5.24078032 L68.3777765,5.24078032 L68.3777765,20.7057203 L66.6615745,20.7057203 L66.6615745,5.24078032 L66.6615745,5.24078032 Z" id="Shape" fill="#FFFFFF" sketch:type="MSShapeGroup"></path>
        <path d="M72.2595481,20.7057203 L72.2595481,5.24078032 L77.7427896,5.24078032 C82.1982221,5.24078032 83.4363734,8.35289035 83.4363734,12.7318347 C83.4363734,17.1538037 82.2555882,20.7057203 77.7427896,20.7057203 L72.2595481,20.7057203 L72.2595481,20.7057203 Z M77.7427896,6.86615269 L73.9470671,6.86615269 L73.9470671,19.089909 L77.7427896,19.089909 C80.9266072,19.089909 81.6628053,16.0017015 81.6628053,12.7366152 C81.6675858,9.49065101 80.9266072,6.86615269 77.7427896,6.86615269 L77.7427896,6.86615269 Z" id="Shape" fill="#FFFFFF" sketch:type="MSShapeGroup"></path>
        <path d="M86.5293614,5.24078032 L95.860911,5.24078032 L95.860911,6.86615269 L88.2120998,6.86615269 L88.2120998,12.0864663 L94.522369,12.0864663 L94.522369,13.6879361 L88.2120998,13.6879361 L88.2120998,19.0851285 L95.860911,19.0851285 L95.860911,20.7057203 L86.5293614,20.7057203 L86.5293614,5.24078032 L86.5293614,5.24078032 Z" id="Shape" fill="#FFFFFF" sketch:type="MSShapeGroup"></path>
        <path d="M108.132472,20.3758654 C108.132472,20.3758654 105.488852,20.9782092 103.729625,20.9782092 C99.0638506,20.9782092 97.945212,18.382394 97.945212,13.0473482 C97.945212,7.26293476 99.4606327,5.11170663 103.729625,5.11170663 C105.622706,5.11170663 108.156375,5.75707507 108.156375,5.75707507 L108.060765,8.44371998 C108.060765,8.44371998 105.37412,8.13776754 104.169432,8.13776754 C101.841325,8.13776754 101.105127,9.02694183 101.105127,13.0473482 C101.105127,16.8430707 101.635763,17.9521483 104.260262,17.9521483 C105.369339,17.9521483 108.060765,17.6222933 108.060765,17.6222933 L108.132472,20.3758654 L108.132472,20.3758654 Z" id="Shape" fill="#FFFFFF" sketch:type="MSShapeGroup"></path>
        <path d="M112.779125,5.37463451 L118.606563,5.37463451 L121.929015,20.7057203 L118.86471,20.7057203 L118.171537,18.1290271 L113.01815,18.1290271 L112.44449,20.7057203 L109.370624,20.7057203 L112.779125,5.37463451 L112.779125,5.37463451 Z M113.658738,15.1794543 L117.593096,15.1794543 L116.149383,8.19991413 L115.145476,8.19991413 L113.658738,15.1794543 L113.658738,15.1794543 Z" id="Shape" fill="#FFFFFF" sketch:type="MSShapeGroup"></path>
        <path d="M129.931584,15.7578956 L126.991572,15.7578956 L126.991572,20.7057203 L123.927267,20.7057203 L123.927267,5.37463451 L129.80251,5.37463451 C133.426135,5.37463451 135.127995,6.84703066 135.127995,10.4610939 C135.127995,12.7318347 134.286626,13.9747665 132.905059,14.8400383 L135.065849,20.7057203 L131.705152,20.7057203 L129.931584,15.7578956 L129.931584,15.7578956 Z M129.80251,8.29074376 L126.991572,8.29074376 L126.991572,12.8417864 L129.845535,12.8417864 C131.375297,12.8417864 131.996763,11.8904655 131.996763,10.5136795 C131.996763,9.04606386 131.265346,8.29074376 129.80251,8.29074376 L129.80251,8.29074376 Z" id="Shape" fill="#FFFFFF" sketch:type="MSShapeGroup"></path>
        <path d="M20.7113416,19.9934248 C20.3432425,19.7496189 20.008607,19.5058131 19.7600207,19.3145928 C19.5688004,19.4006419 19.3727996,19.4436665 19.1672378,19.458008 C19.1098717,19.6301063 19.0525057,19.8213265 18.9903591,20.0221078 L18.6605041,21.7956759 C19.4731903,21.8865056 20.309779,21.7144073 21.0316355,21.3128447 C21.347149,21.135966 21.6291989,20.9256237 21.8873463,20.6770373 C21.7869556,20.6292322 21.6817845,20.5766466 21.5718328,20.5145001 C21.3089049,20.3758654 21.017294,20.1989866 20.7113416,19.9934248 L20.7113416,19.9934248 Z" id="Shape" fill="#FFFFFF" sketch:type="MSShapeGroup"></path>
        <path d="M17.556207,18.4062965 C17.3793282,18.4062965 17.1785469,18.4062965 16.9586436,18.411077 L15.180295,18.6453218 C15.2567831,19.0373234 15.3954178,19.4054224 15.6009796,19.7639605 C15.7109313,19.9695223 15.849566,20.1703036 15.9977617,20.3519628 C16.3371777,20.7678669 16.7626428,21.1120634 17.2406935,21.3654303 C17.2884986,20.9877702 17.3841087,20.5527441 17.5323044,20.0412299 C17.6231341,19.7113749 17.7283052,19.3671784 17.8525984,19.0086404 L17.8765009,18.9225912 C17.7952323,18.8269811 17.7187442,18.731371 17.6565976,18.6166388 C17.6135731,18.5497117 17.58489,18.4732236 17.556207,18.4062965 L17.556207,18.4062965 Z" id="Shape" fill="#FFFFFF" sketch:type="MSShapeGroup"></path>
        <path d="M17.0972783,14.3572071 C16.0551278,14.94999 15.3476128,15.977799 15.151612,17.1585842 C15.5149305,17.0820961 15.9690787,17.043852 16.4997149,17.0199495 C16.9299606,17.0008274 17.3458647,17.0008274 17.6613781,17.0056079 C17.7665493,16.8239487 17.895623,16.675753 18.0581602,16.5371183 C18.0103551,16.374581 17.9482085,16.1833607 17.8812815,15.9730184 L17.0972783,14.3572071 L17.0972783,14.3572071 Z" id="Shape" fill="#FFFFFF" sketch:type="MSShapeGroup"></path>
        <path d="M22.6713494,16.0495066 C22.4084215,16.3172149 22.0785666,16.6183869 21.657882,16.9482419 C21.3089049,17.2255113 20.9742695,17.4693171 20.7209026,17.6461959 C20.7209026,17.6557569 20.7256831,17.6748789 20.7256831,17.6796594 C20.7400246,17.8756602 20.7209026,18.0668805 20.6730975,18.2533203 C20.8117322,18.3584914 20.9742695,18.4780041 21.1559287,18.6022973 L22.733496,19.458008 C23.1972052,18.4349795 23.2019857,17.2733163 22.7621791,16.2407268 C22.733496,16.1785802 22.704813,16.1116531 22.6713494,16.0495066 L22.6713494,16.0495066 Z" id="Shape" fill="#FFFFFF" sketch:type="MSShapeGroup"></path>
        <path d="M19.4253852,16.2168243 C19.6261665,16.2598489 19.8221673,16.336337 19.989485,16.4510691 C20.1329002,16.3506785 20.2954375,16.2311658 20.4723162,16.1020921 L21.7726141,14.8639408 C20.9025619,14.0703767 19.6787521,13.6879361 18.5075279,13.8695954 C18.6844066,14.1994504 18.8660659,14.610574 19.0525057,15.1125272 C19.2102624,15.5140898 19.3297751,15.9108719 19.4253852,16.2168243 L19.4253852,16.2168243 Z" id="Shape" fill="#FFFFFF" sketch:type="MSShapeGroup"></path>
        <path d="M26.4383889,16.1164337 C25.9794602,14.1946699 24.8225776,12.6218831 23.2975958,11.5988546 L23.2975958,11.5988546 C23.2067662,11.5414885 23.1159366,11.4841224 23.0298874,11.4267563 C22.9199358,11.3598292 22.8147646,11.2976826 22.704813,11.2450971 C22.5996418,11.187731 22.4944707,11.1303649 22.384519,11.0777793 L22.384519,11.0777793 C21.8634437,10.8244124 21.3089049,10.6379727 20.7400246,10.5041185 C19.6930936,10.2698736 18.5887965,10.2603126 17.4797189,10.5041185 C17.4462553,10.5136795 17.4080113,10.51846 17.3745477,10.528021 C15.6153212,10.9439251 14.152486,11.9430511 13.1390185,13.272032 C13.0625304,13.3676422 12.9956033,13.4680328 12.9286762,13.5636429 C12.8521881,13.6640336 12.7900415,13.7644242 12.7183339,13.8695954 C12.6609679,13.9652055 12.6131628,14.0560352 12.5510162,14.1564258 L12.5510162,14.1564258 C11.6475004,15.7435541 11.3272064,17.6700984 11.7861351,19.5918622 C11.8530622,19.8786926 11.9343308,20.155962 12.0299409,20.4236704 C12.2020392,20.9017211 12.417162,21.3415278 12.6705289,21.7574319 C14.3150233,24.4775403 17.58489,25.9594975 20.8499763,25.1850554 C23.4505721,24.56837 25.4201409,22.6657282 26.2280466,20.3089383 C26.6248287,19.1711776 26.7491219,17.9186848 26.5435601,16.6566309 C26.514877,16.4749717 26.476633,16.2980929 26.4383889,16.1164337 L26.4383889,16.1164337 Z M23.5414017,20.6005492 C22.8338867,21.7287488 21.7009065,22.5940206 20.2954375,22.9238756 C18.4406008,23.3684627 16.5714225,22.7517773 15.3237102,21.4706014 C14.8647816,21.0021118 14.491902,20.4380119 14.2289741,19.797424 C14.133364,19.5536182 14.0473149,19.3002513 13.9899488,19.0325429 C13.9564852,18.8939082 13.9278022,18.760054 13.9038997,18.6261998 C13.8991192,18.5831752 13.8991192,18.5449312 13.8943386,18.4923456 C13.8752166,18.411077 13.8704361,18.3106863 13.8656556,18.2198567 C13.8608751,18.1768322 13.8560946,18.1242466 13.8513141,18.0764415 C13.8465336,17.9856119 13.8465336,17.8852212 13.8465336,17.7943916 L13.8465336,17.6748789 C13.8513141,17.5505857 13.8608751,17.4262926 13.8704361,17.3019994 C13.8752166,17.2494138 13.8847776,17.2016087 13.8943386,17.1490232 C13.8991192,17.0677545 13.9086802,17.0008274 13.9230217,16.9243393 C13.9325827,16.8574122 13.9421437,16.8048267 13.9612657,16.7378996 C13.9660463,16.675753 13.9851683,16.6231674 13.9947293,16.5658013 C14.0138513,16.4893132 14.0329733,16.4223861 14.0520954,16.355459 C14.0664369,16.3172149 14.0712174,16.2741904 14.0903394,16.2455073 C14.142925,16.0734091 14.2050716,15.9108719 14.2767792,15.7483346 C14.2815597,15.7387736 14.2815597,15.7244321 14.2863402,15.7148711 C14.3245843,15.6288219 14.3723893,15.5427728 14.4106334,15.4519432 C14.4201944,15.4328212 14.4297554,15.4184796 14.4440969,15.3945771 C14.4871215,15.3037475 14.5349266,15.2176983 14.5875122,15.1316492 L14.5875122,15.1220882 C14.8934646,14.639257 15.2520026,14.1994504 15.6918093,13.8313513 C15.6918093,13.8313513 15.6965898,13.8313513 15.7013703,13.8217903 C15.7874194,13.7453022 15.8830295,13.6735946 15.9834202,13.5971065 C16.0121032,13.573204 16.0407863,13.5588624 16.0694693,13.5397404 C16.1459574,13.4823743 16.2224455,13.4297887 16.2989336,13.3819837 C16.4136658,13.3054956 16.528398,13.243349 16.6431301,13.1764219 C16.7722038,13.1094948 16.8917165,13.0569092 17.0255707,12.9995431 C17.0399122,12.9899821 17.0638148,12.9804211 17.0829368,12.9804211 C17.20723,12.923055 17.3363037,12.8800304 17.4701579,12.8322254 L17.4749384,12.8322254 L17.4797189,12.8322254 C17.604012,12.7939813 17.7426468,12.7461762 17.8812815,12.7174932 C18.1633314,12.6505661 18.4358203,12.6123221 18.7130897,12.5932 C18.7274312,12.5884195 18.7465532,12.5884195 18.7704557,12.5884195 C18.9090904,12.5788585 19.0477252,12.5692975 19.1815793,12.5692975 L19.1815793,12.5692975 C19.320214,12.5788585 19.4540682,12.5884195 19.5879224,12.5979805 C19.6787521,12.6075415 19.7743622,12.6266636 19.8651918,12.6362246 C19.8986554,12.6457856 19.9368994,12.6457856 19.970363,12.6553466 C20.0850952,12.6744686 20.2046078,12.6935907 20.31934,12.7270542 L20.3336815,12.7270542 C20.8786593,12.8656889 21.4045151,13.0855922 21.8777853,13.3867642 C21.8825658,13.3915447 21.8873463,13.3915447 21.8969073,13.3915447 C21.9781759,13.4536913 22.054664,13.5014963 22.1359326,13.5588624 C22.1646157,13.573204 22.1837377,13.592326 22.2028597,13.6066675 C22.2793479,13.6592531 22.355836,13.7118387 22.4227631,13.7739852 C22.4418851,13.7883268 22.4514461,13.8074488 22.4657876,13.8122293 C22.5900808,13.9174005 22.7095935,14.0369131 22.8291062,14.1516453 C22.8625697,14.1803283 22.8960333,14.2137919 22.9342773,14.2472554 C22.9773019,14.3046215 23.0251069,14.3524266 23.0681315,14.4002317 C23.1063756,14.4480367 23.1446196,14.5006223 23.1828637,14.5436469 C23.2258882,14.5914519 23.2641323,14.648818 23.2975958,14.6918426 C23.3454009,14.7587697 23.383645,14.8161358 23.43145,14.8782824 C23.4553526,14.9260874 23.4888161,14.9643315 23.5174992,15.0025755 C23.5796457,15.1077467 23.6465728,15.2176983 23.7039389,15.32765 C23.7278415,15.3658941 23.742183,15.4041381 23.761305,15.4423822 C23.7995491,15.5236508 23.8473541,15.6144804 23.8855982,15.695749 C23.9047202,15.7387736 23.9190617,15.7817982 23.9381838,15.8296032 C23.9764278,15.9156524 24.0098914,16.0017015 24.0385744,16.0925311 C24.0529159,16.1307752 24.0672575,16.1737997 24.081599,16.2120438 C24.119843,16.3411175 24.1628676,16.4749717 24.1963311,16.6088259 C24.2250142,16.7378996 24.2536972,16.8717538 24.2728193,17.0008274 C24.4736005,18.2820033 24.1915506,19.5536182 23.5414017,20.6005492 L23.5414017,20.6005492 Z" id="Shape" fill="#FFFFFF" sketch:type="MSShapeGroup"></path>
        <path d="M47.7307669,6.41678503 L30.5018198,10.5041185 L27.1363429,11.3072437 C27.0550743,11.2020725 26.7204388,10.829193 26.4240474,10.5041185 C26.2567296,10.3224592 26.0941924,10.150361 25.9985823,10.0499703 L47.448717,4.95873041 C47.2813993,4.3372645 46.9658858,3.83531127 45.9189548,3.54370035 C44.6090959,3.18516233 43.6434335,2.98916154 40.4596158,2.35813462 C37.6295557,1.8609619 29.9425005,0.656274146 29.9425005,0.656274146 C29.9425005,0.656274146 27.8295164,0.374224235 29.8946954,0.957446084 C31.4244577,1.39247222 33.6234909,2.45852527 34.2975424,2.77881924 C32.67217,3.56282238 29.6556701,6.33551641 27.3084412,7.23903223 C24.2489167,8.41981745 19.0142616,8.30030477 19.0142616,8.30030477 L22.0403225,8.75445294 C20.4388527,8.19035311 18.6605041,8.07084044 16.8725945,8.49630556 C15.7539559,8.75923344 14.7309274,9.22294262 13.8274116,9.82528649 C13.5979472,9.57191963 13.1581406,9.09864944 13.0720915,9.0078198 C12.9573593,8.88352662 12.4840891,8.3194268 11.7048665,8.7305504 C11.3654505,8.91220966 10.0269085,9.65796875 8.5688539,10.5041185 C7.80397278,10.9582666 7.00562812,11.4410978 6.29811309,11.8904655 L1.48892309,8.14254804 C1.31204433,8.00391334 0.996530872,7.96566929 0.790969073,8.04693791 L0.10257607,8.36245136 C-0.107766236,8.4580615 -0.088644208,8.54411063 0.131259112,8.55845215 L0.279454828,8.57279367 C0.494577641,8.59669621 0.776627552,8.76879446 0.891359719,8.96479524 L3.89351809,14.1038402 C3.71663933,14.5340858 3.67839528,14.8926239 3.6927368,15.3324305 L3.72141984,15.32765 L9.51539427,13.950864 C9.48671123,14.0177911 9.21900284,14.8304773 9.17597828,14.9452094 L9.17597828,14.9452094 L9.17119777,14.959551 L9.17119777,14.9643315 L9.17119777,14.9643315 L8.99909952,15.6096999 L4.12298242,16.7665826 C4.62493565,17.9712704 5.51410995,19.7448384 6.07820977,20.1989866 C6.84309088,20.825233 7.89002191,21.6666022 10.1272992,20.9782092 C10.1990068,20.9590872 10.2754949,20.9304042 10.3663245,20.9065016 C10.5097397,21.2650396 10.6674965,21.6187972 10.8539362,21.9534326 L11.3845725,21.8960666 C11.2029132,21.5518701 11.040376,21.193332 10.9113023,20.8300135 C10.7965701,20.5145001 10.70096,20.1942061 10.6196914,19.8643511 C10.1990068,18.0621 10.3567635,16.1929218 11.059498,14.5054028 L11.0642785,14.5054028 L11.4658411,13.6688141 C11.4849631,13.63057 11.4993047,13.5971065 11.5232072,13.5588624 C11.5805733,13.4536913 11.6427199,13.3437396 11.7144275,13.243349 C11.7909156,13.1238363 11.8721842,12.9995431 11.9534528,12.8800304 C12.0299409,12.7700788 12.1112096,12.6553466 12.1924782,12.5501755 C12.8139441,11.7422698 13.5692642,11.0538768 14.4201944,10.508899 C15.2376611,9.98782373 16.1363964,9.60538317 17.0972783,9.37113833 C19.0381641,8.90742916 21.1176847,9.13689349 22.9055943,10.0021653 C23.0298874,10.0690923 23.1494001,10.1216779 23.2736933,10.1933855 C23.3979865,10.2650931 23.5222797,10.3320202 23.6465728,10.4037278 C23.7039389,10.4419719 23.751744,10.4706549 23.8043296,10.5041185 C23.8521346,10.5423625 23.9095007,10.5758261 23.9620863,10.6045091 C23.9955499,10.6331922 24.0290134,10.6523142 24.062477,10.6762167 L24.062477,10.6762167 L24.7938945,11.2403166 C26.1898025,12.4354433 27.1698065,14.0321326 27.5952716,15.8391642 C27.6382962,16.0399455 27.6908817,16.2502878 27.7243453,16.4654107 C27.9203461,17.703562 27.8486385,18.9703963 27.5187835,20.1703036 L27.9346876,20.127279 C28.2454205,19.070787 28.3649332,17.9425873 28.2788841,16.8096072 L28.8190814,16.8574122 C28.8190814,16.8574122 39.9481016,14.6775011 43.8298732,11.7948554 C44.4417781,11.3407072 44.9676339,10.9152421 45.4074405,10.5041185 C47.4104729,8.66840381 47.797694,7.32986186 47.7307669,6.41678503 L47.7307669,6.41678503 Z" id="Shape" fill="#FFFFFF" sketch:type="MSShapeGroup"></path>
    </g>
</svg>