<?xml version="1.0" encoding="utf-8"?>
<!-- Generator: Adobe Illustrator 15.0.2, SVG Export Plug-In . SVG Version: 6.00 Build 0)  -->
<!DOCTYPE svg PUBLIC "-//W3C//DTD SVG 1.1//EN" "http://www.w3.org/Graphics/SVG/1.1/DTD/svg11.dtd">
<svg version="1.1" id="Layer_1" xmlns="http://www.w3.org/2000/svg" xmlns:xlink="http://www.w3.org/1999/xlink" x="0px" y="0px"
	 width="28.365px" height="8.438px" viewBox="0 0 28.365 8.438" enable-background="new 0 0 28.365 8.438" xml:space="preserve">
<g>
	<path fill="#FFFFFF" d="M13.251,4.59c0,0-0.642-0.073-0.911-0.073c-0.456,0-0.702,0.147-0.702,0.511
		c0,0.424,0.223,0.493,0.791,0.618c0.642,0.145,0.925,0.302,0.925,0.879c0,0.698-0.396,0.976-1.042,0.976
		c-0.354,0-0.99-0.097-0.99-0.097l0.037-0.325c0,0,0.618,0.078,0.948,0.078c0.457,0,0.685-0.172,0.685-0.618
		c0-0.362-0.191-0.464-0.716-0.567C11.611,5.826,11.28,5.67,11.28,5.037c0-0.605,0.405-0.865,1.06-0.865
		c0.358,0,0.943,0.093,0.943,0.093L13.251,4.59z"/>
	<path fill="#FFFFFF" d="M13.954,4.223h0.359v3.235h-0.359V4.223z"/>
	<path fill="#FFFFFF" d="M15.125,7.458V4.223h1.147c0.932,0,1.191,0.651,1.191,1.567c0,0.925-0.247,1.668-1.191,1.668H15.125z
		 M16.272,4.563h-0.794v2.557h0.794c0.666,0,0.82-0.646,0.82-1.329C17.093,5.112,16.938,4.563,16.272,4.563z"/>
	<path fill="#FFFFFF" d="M18.11,4.223h1.952v0.34h-1.6v1.092h1.32V5.99h-1.32v1.129h1.6v0.339H18.11V4.223z"/>
	<path fill="#FFFFFF" d="M22.629,7.389c0,0-0.553,0.126-0.921,0.126c-0.976,0-1.21-0.543-1.21-1.659c0-1.21,0.317-1.66,1.21-1.66
		c0.396,0,0.926,0.135,0.926,0.135l-0.02,0.562c0,0-0.562-0.064-0.814-0.064c-0.487,0-0.641,0.186-0.641,1.027
		c0,0.794,0.111,1.026,0.66,1.026c0.232,0,0.795-0.069,0.795-0.069L22.629,7.389z"/>
	<path fill="#FFFFFF" d="M23.601,4.251h1.219l0.695,3.207h-0.641l-0.145-0.539h-1.078l-0.12,0.539h-0.643L23.601,4.251z
		 M23.785,6.302h0.823l-0.302-1.46h-0.21L23.785,6.302z"/>
	<path fill="#FFFFFF" d="M27.189,6.423h-0.615v1.035h-0.641V4.251h1.229c0.758,0,1.114,0.308,1.114,1.064
		c0,0.475-0.176,0.735-0.465,0.916l0.452,1.227h-0.703L27.189,6.423z M27.162,4.861h-0.588v0.952h0.597
		c0.32,0,0.45-0.199,0.45-0.487C27.621,5.019,27.468,4.861,27.162,4.861z"/>
</g>
<g>
	<path fill="#FFFFFF" d="M4.342,7.309C4.265,7.258,4.195,7.207,4.143,7.167c-0.04,0.018-0.081,0.027-0.124,0.03
		C4.007,7.233,3.995,7.273,3.982,7.315L3.913,7.686c0.17,0.019,0.345-0.017,0.496-0.101c0.066-0.037,0.125-0.081,0.179-0.133
		c-0.021-0.01-0.043-0.021-0.066-0.034C4.467,7.389,4.406,7.352,4.342,7.309z"/>
	<path fill="#FFFFFF" d="M3.682,6.977c-0.037,0-0.079,0-0.125,0.001L3.185,7.027C3.201,7.109,3.23,7.186,3.273,7.261
		c0.023,0.043,0.052,0.085,0.083,0.123c0.071,0.087,0.16,0.159,0.26,0.212c0.01-0.079,0.03-0.17,0.061-0.277
		c0.019-0.069,0.041-0.141,0.067-0.216l0.005-0.018c-0.017-0.02-0.033-0.04-0.046-0.064C3.694,7.007,3.688,6.991,3.682,6.977z"/>
	<path fill="#FFFFFF" d="M3.586,6.13C3.368,6.254,3.22,6.469,3.179,6.716C3.255,6.7,3.35,6.692,3.461,6.687
		c0.09-0.004,0.177-0.004,0.243-0.003c0.022-0.038,0.049-0.069,0.083-0.098C3.777,6.552,3.764,6.512,3.75,6.468L3.586,6.13z"/>
	<path fill="#FFFFFF" d="M4.752,6.484C4.697,6.54,4.628,6.603,4.54,6.672C4.467,6.73,4.397,6.781,4.344,6.818
		c0,0.002,0.001,0.006,0.001,0.007c0.003,0.041-0.001,0.081-0.011,0.12c0.029,0.022,0.063,0.047,0.101,0.073l0.33,0.179
		C4.862,6.983,4.863,6.74,4.771,6.524C4.765,6.511,4.759,6.497,4.752,6.484z"/>
	<path fill="#FFFFFF" d="M4.073,6.519c0.042,0.009,0.083,0.025,0.118,0.049c0.03-0.021,0.064-0.046,0.101-0.073l0.272-0.259
		C4.382,6.07,4.126,5.99,3.881,6.028c0.037,0.069,0.075,0.155,0.114,0.26C4.028,6.372,4.053,6.455,4.073,6.519z"/>
	<path fill="#FFFFFF" d="M5.54,6.498C5.444,6.096,5.202,5.767,4.883,5.553l0,0C4.864,5.541,4.845,5.529,4.827,5.517
		C4.804,5.503,4.782,5.49,4.759,5.479C4.737,5.467,4.715,5.455,4.692,5.444l0,0C4.583,5.391,4.467,5.352,4.348,5.324
		c-0.219-0.049-0.45-0.051-0.682,0C3.659,5.326,3.651,5.327,3.644,5.329C3.276,5.416,2.97,5.625,2.758,5.903
		c-0.016,0.02-0.03,0.041-0.044,0.061C2.698,5.985,2.685,6.006,2.67,6.028c-0.012,0.02-0.022,0.039-0.035,0.06l0,0
		C2.446,6.42,2.379,6.823,2.475,7.225c0.014,0.06,0.031,0.118,0.051,0.174c0.036,0.1,0.081,0.192,0.134,0.279
		c0.344,0.569,1.028,0.879,1.711,0.717c0.544-0.129,0.956-0.527,1.125-1.02c0.083-0.238,0.109-0.5,0.066-0.764
		C5.556,6.573,5.548,6.536,5.54,6.498z M4.934,7.436C4.786,7.672,4.549,7.853,4.255,7.922C3.867,8.015,3.476,7.886,3.215,7.618
		C3.119,7.52,3.041,7.402,2.986,7.268c-0.02-0.051-0.038-0.104-0.05-0.16C2.929,7.079,2.923,7.051,2.918,7.023
		C2.917,7.014,2.917,7.006,2.916,6.995C2.912,6.978,2.911,6.957,2.91,6.938c-0.001-0.009-0.002-0.02-0.003-0.03
		C2.906,6.889,2.906,6.868,2.906,6.849c0-0.008,0-0.018,0-0.025c0.001-0.026,0.003-0.052,0.005-0.078
		c0.001-0.011,0.003-0.021,0.005-0.032c0.001-0.017,0.003-0.031,0.006-0.047c0.002-0.014,0.004-0.025,0.008-0.039
		c0.001-0.013,0.005-0.024,0.007-0.036c0.004-0.016,0.008-0.03,0.012-0.044c0.003-0.008,0.004-0.017,0.008-0.023
		c0.011-0.036,0.024-0.07,0.039-0.104c0.001-0.002,0.001-0.005,0.002-0.007c0.008-0.018,0.018-0.036,0.026-0.055
		c0.002-0.004,0.004-0.007,0.007-0.012c0.009-0.019,0.019-0.037,0.03-0.055c0-0.001,0-0.001,0-0.002
		C3.125,6.189,3.2,6.097,3.292,6.02c0,0,0.001,0,0.002-0.002c0.018-0.016,0.038-0.031,0.059-0.047
		c0.006-0.005,0.012-0.008,0.018-0.012c0.016-0.012,0.032-0.023,0.048-0.033C3.443,5.91,3.467,5.897,3.491,5.883
		c0.027-0.014,0.052-0.025,0.08-0.037c0.003-0.002,0.008-0.004,0.012-0.004C3.609,5.83,3.636,5.821,3.664,5.811c0,0,0,0,0.001,0
		c0,0,0,0,0.001,0C3.692,5.803,3.721,5.793,3.75,5.787c0.059-0.014,0.116-0.022,0.174-0.026C3.927,5.76,3.931,5.76,3.936,5.76
		c0.029-0.002,0.058-0.004,0.086-0.004l0,0C4.051,5.758,4.079,5.76,4.107,5.762C4.126,5.764,4.146,5.768,4.165,5.77
		C4.172,5.772,4.18,5.772,4.187,5.774C4.211,5.778,4.236,5.782,4.26,5.789c0.001,0,0.001,0,0.003,0
		c0.114,0.029,0.224,0.075,0.323,0.138c0.001,0.001,0.002,0.001,0.004,0.001c0.017,0.013,0.033,0.023,0.05,0.035
		C4.646,5.966,4.65,5.97,4.654,5.973C4.67,5.984,4.686,5.995,4.7,6.008c0.004,0.003,0.006,0.007,0.009,0.008
		c0.026,0.022,0.051,0.047,0.076,0.071C4.792,6.093,4.799,6.1,4.807,6.107c0.009,0.012,0.019,0.022,0.028,0.032
		c0.008,0.01,0.016,0.021,0.024,0.03C4.868,6.179,4.876,6.191,4.883,6.2c0.01,0.014,0.018,0.026,0.028,0.039
		c0.005,0.01,0.012,0.018,0.018,0.026c0.013,0.022,0.027,0.045,0.039,0.068C4.973,6.341,4.976,6.349,4.98,6.357
		C4.988,6.374,4.998,6.393,5.006,6.41C5.01,6.419,5.013,6.428,5.017,6.438c0.008,0.018,0.015,0.036,0.021,0.055
		C5.041,6.501,5.044,6.51,5.047,6.518c0.008,0.027,0.017,0.055,0.024,0.083c0.006,0.027,0.012,0.055,0.016,0.082
		C5.129,6.951,5.07,7.217,4.934,7.436z"/>
	<path fill="#FFFFFF" d="M9.994,4.469L6.39,5.324L5.686,5.492c-0.017-0.022-0.087-0.1-0.149-0.168
		C5.502,5.286,5.468,5.25,5.448,5.229l4.487-1.065c-0.035-0.13-0.101-0.235-0.32-0.296C9.341,3.793,9.139,3.752,8.473,3.62
		c-0.592-0.104-2.2-0.356-2.2-0.356s-0.442-0.059-0.01,0.063c0.32,0.091,0.78,0.314,0.921,0.381
		c-0.34,0.164-0.971,0.744-1.462,0.933c-0.64,0.247-1.735,0.222-1.735,0.222l0.633,0.095C4.285,4.84,3.913,4.815,3.539,4.904
		C3.305,4.959,3.091,5.056,2.902,5.182C2.854,5.129,2.762,5.03,2.744,5.011C2.72,4.985,2.621,4.867,2.458,4.953
		C2.387,4.991,2.107,5.147,1.802,5.324C1.642,5.419,1.475,5.52,1.327,5.614L0.321,4.83c-0.037-0.029-0.103-0.037-0.146-0.02
		L0.031,4.876c-0.044,0.02-0.04,0.038,0.006,0.041L0.068,4.92c0.045,0.005,0.104,0.041,0.128,0.082l0.628,1.075
		c-0.037,0.09-0.045,0.165-0.042,0.257l0.006-0.001L2,6.045C1.994,6.059,1.938,6.229,1.929,6.253l0,0L1.928,6.256
		c0,0.001,0,0.001,0,0.001l0,0L1.892,6.392L0.872,6.634c0.105,0.252,0.291,0.623,0.409,0.718c0.16,0.131,0.379,0.307,0.847,0.163
		c0.015-0.004,0.031-0.01,0.05-0.015C2.208,7.575,2.241,7.649,2.28,7.719l0.111-0.012C2.353,7.635,2.319,7.56,2.292,7.484
		C2.268,7.418,2.248,7.351,2.231,7.282C2.143,6.905,2.176,6.514,2.323,6.161h0.001l0.084-0.175C2.412,5.978,2.415,5.971,2.42,5.963
		c0.012-0.022,0.025-0.045,0.04-0.066c0.016-0.025,0.033-0.051,0.05-0.076c0.016-0.023,0.033-0.047,0.05-0.069
		c0.13-0.169,0.288-0.313,0.466-0.427c0.171-0.109,0.359-0.189,0.56-0.238C3.992,4.99,4.427,5.038,4.801,5.219
		c0.026,0.014,0.051,0.025,0.077,0.04C4.904,5.274,4.93,5.288,4.956,5.303c0.012,0.008,0.022,0.014,0.033,0.021
		c0.01,0.008,0.022,0.015,0.033,0.021c0.007,0.006,0.014,0.01,0.021,0.015l0,0l0.153,0.118c0.292,0.25,0.497,0.584,0.586,0.962
		c0.009,0.042,0.02,0.086,0.027,0.131C5.85,6.83,5.835,7.095,5.766,7.346l0.087-0.009c0.065-0.221,0.09-0.457,0.072-0.694
		l0.113,0.01c0,0,2.328-0.456,3.14-1.059c0.128-0.095,0.238-0.184,0.33-0.27C9.927,4.94,10.008,4.66,9.994,4.469z"/>
</g>
</svg>
